<svg xmlns="http://www.w3.org/2000/svg" viewBox="0 0 100 100">
  <circle cx="50" cy="50" r="44" fill="none" stroke="#000000" stroke-width="4" />

  <g fill="#000000">
    <rect x="48" y="11" width="4" height="4" transform="rotate(30 50 50)" />
    <rect x="48" y="11" width="4" height="4" transform="rotate(60 50 50)" />
    <rect x="48" y="11" width="4" height="4" transform="rotate(90 50 50)" />
    <rect x="48" y="11" width="4" height="4" transform="rotate(120 50 50)" />
    <rect x="48" y="11" width="4" height="4" transform="rotate(150 50 50)" />
    <rect x="48" y="11" width="4" height="4" transform="rotate(180 50 50)" />
    <rect x="48" y="11" width="4" height="4" transform="rotate(210 50 50)" />
    <rect x="48" y="11" width="4" height="4" transform="rotate(240 50 50)" />
    <rect x="48" y="11" width="4" height="4" transform="rotate(270 50 50)" />
    <rect x="48" y="11" width="4" height="4" transform="rotate(300 50 50)" />
    <rect x="48" y="11" width="4" height="4" transform="rotate(330 50 50)" />
  </g>

  <line x1="50" y1="50" x2="26" y2="64" stroke="#000000" stroke-width="6" stroke-linecap="round" />

  <g fill="#000000">
    <rect x="45" y="36" width="10" height="14" />
    <rect x="46" y="26" width="8" height="10" />
    <path d="M46,26 C46,16 54,16 54,26 Z" />
    <rect x="48" y="16" width="4" height="10" />
    <path d="M50,8 A8,8 0 1,0 58,16 A6,6 0 1,1 50,8 Z" />
  </g>

  <circle cx="50" cy="50" r="5" fill="#000000" />
</svg>